<svg width="109" height="22" viewBox="0 0 109 22" fill="none" xmlns="http://www.w3.org/2000/svg">
<path fill-rule="evenodd" clip-rule="evenodd" d="M69.6842 10.4016L67.9976 18.3776H68.034C67.8834 19.1665 67.1783 19.7215 66.3838 19.6763H62.234C61.3859 19.6838 60.5396 19.5976 59.7102 19.419C59.0422 19.2861 58.4146 18.9965 57.8779 18.5736C57.404 18.1882 57.064 17.6604 56.9072 17.0666C56.7253 16.3223 56.7253 15.5444 56.9072 14.8C57.0693 13.9721 57.432 13.1976 57.9629 12.5457C58.4602 11.9496 59.0655 11.4547 59.7466 11.0877C60.4295 10.7225 61.161 10.4584 61.9185 10.3036C62.6613 10.1502 63.4173 10.0723 64.1754 10.0708H65.947L66.0198 9.82579C66.1107 9.46811 66.1107 9.09305 66.0198 8.73537C65.7864 8.20303 65.2481 7.87498 64.6729 7.9145H60.147C60.147 7.9145 59.6495 7.95125 59.8072 7.31416L60.1955 5.47637C60.2553 5.11881 60.5644 4.85872 60.9235 4.86378H64.8549C66.7721 4.86378 68.1675 5.15783 69.0411 6.08897C69.9148 7.02011 70.1332 8.34331 69.6842 10.4016ZM63.0225 16.5893H64.5999L65.4007 12.5339H63.9932C63.2162 12.5061 62.4446 12.6746 61.7484 13.024C61.1641 13.3698 60.7669 13.9647 60.6685 14.6413C60.5548 15.0081 60.5763 15.4041 60.7291 15.7562C60.8633 16.0102 61.0765 16.2125 61.3358 16.332C61.602 16.467 61.8894 16.5541 62.1852 16.5893H63.0225Z" fill="white"/>
<path fill-rule="evenodd" clip-rule="evenodd" d="M108.136 10.4016L106.45 18.3776L106.425 18.3898C106.27 19.1758 105.568 19.7283 104.775 19.6885H100.638C99.7895 19.6961 98.9432 19.6098 98.1137 19.4313C97.4457 19.2988 96.818 19.0091 96.2815 18.5859C95.8082 18.1999 95.4683 17.6723 95.3108 17.0789C95.1298 16.3344 95.1298 15.5568 95.3108 14.8123C95.4755 13.9792 95.8424 13.2004 96.3786 12.5457C96.8759 11.9496 97.4813 11.4547 98.1623 11.0877C98.8453 10.7227 99.5768 10.4586 100.334 10.3036C101.077 10.1502 101.833 10.0722 102.591 10.0708H104.387L104.46 9.82579C104.552 9.46825 104.552 9.09291 104.46 8.73537C104.226 8.20303 103.688 7.87498 103.113 7.9145H98.5991C98.5991 7.9145 98.1016 7.95125 98.2593 7.31415L98.6476 5.47637C98.7074 5.11881 99.0166 4.85872 99.3757 4.86378H103.307C105.224 4.86378 106.62 5.15783 107.493 6.08897C108.367 7.02011 108.585 8.34331 108.136 10.4016ZM101.414 16.6016H102.991L103.804 12.5339H102.409C101.632 12.5056 100.86 12.6741 100.164 13.024C99.5536 13.3717 99.1403 13.9887 99.0478 14.6903C98.933 15.057 98.9546 15.4534 99.1085 15.8052C99.2434 16.0586 99.4563 16.2608 99.7152 16.381C99.9875 16.5045 100.279 16.5791 100.577 16.6016H101.414Z" fill="white"/>
<path d="M83.5911 3.49239C83.5264 3.77518 83.2837 3.98026 82.9966 3.99471H80.1572C80.0322 3.99984 79.9124 3.94381 79.8354 3.8442C79.7584 3.74459 79.7336 3.61361 79.7689 3.49239L80.3999 0.527431C80.4646 0.244635 80.7074 0.039556 80.9945 0.0251044H83.8338C83.9588 0.0199733 84.0787 0.0760074 84.1557 0.175618C84.2327 0.275229 84.2574 0.406204 84.2221 0.527431L83.5911 3.49239Z" fill="white"/>
<path d="M76.395 19.7011L79.3799 5.37868C79.4492 5.10072 79.6909 4.90155 79.9745 4.8886H82.838C82.96 4.88326 83.0769 4.93799 83.1517 5.03539C83.2264 5.1328 83.2497 5.26078 83.2142 5.37868L80.4598 18.4146C80.4598 19.0913 79.9166 19.6398 79.2464 19.6398H76.395V19.7011Z" fill="white"/>
<path d="M96.3314 4.88841H86.2724C85.9133 4.88335 85.6042 5.14344 85.5444 5.501L85.144 7.33878C84.9862 7.97588 85.4837 7.93912 85.4837 7.93912H91.2473C91.2473 7.93912 86.6971 13.0236 84.2339 15.5598C83.695 16.0604 83.2795 16.6814 83.0206 17.373L82.5231 19.7009H92.6549C92.9778 19.6833 93.2376 19.4262 93.2616 19.1006L93.6741 17.2628C93.7379 17.1272 93.7269 16.9678 93.645 16.8425C93.5631 16.7171 93.4223 16.6442 93.2737 16.6502H87.4858L95.7247 7.69408C96.0598 6.78903 96.2641 5.83999 96.3314 4.87616" fill="white"/>
<path d="M57.4063 4.87619C57.7824 4.87619 57.8431 5.13348 57.746 5.52554L57.3335 7.43683C57.3274 7.70021 57.1209 7.91412 56.8603 7.9269H52.6377C51.4243 7.9269 50.3808 8.80904 49.9318 11.0756L49.5071 13.2197C49.0582 15.4863 50.223 16.589 51.3879 16.589H54.8339C54.8339 16.589 55.3921 16.589 55.295 17.0178L54.8703 19.0638C54.8734 19.3579 54.6609 19.6091 54.3728 19.6519H50.4172C46.9954 19.6519 44.8477 17.3608 45.6728 13.2075L46.0975 11.0634C46.9226 6.91 48.6335 4.81493 53.3778 4.86394H57.4184L57.4063 4.87619Z" fill="white"/>
<path fill-rule="evenodd" clip-rule="evenodd" d="M39.6415 4.87682C40.4991 4.86458 41.3486 5.04451 42.129 5.40366C43.9976 6.29804 44.944 8.33185 44.3495 11.3213L43.9612 13.4776C43.2817 16.8347 42.0319 18.844 39.1076 19.4688C38.3088 19.6285 37.4949 19.6983 36.6809 19.6771H35.0671C34.2095 19.6893 33.36 19.5094 32.5796 19.1503C30.7231 18.2436 29.7888 16.2098 30.3227 13.2203L30.7474 11.0763C31.4269 7.71926 32.6767 5.70995 35.601 5.08511C36.3999 4.92603 37.2137 4.85618 38.0277 4.87682H39.6415ZM40.1137 13.453L40.5384 11.3211H40.5991C41.0481 9.05454 39.9317 7.95187 38.7183 7.95187H37.0681C36.0125 8.07439 35.0539 8.99328 34.6414 11.0761L34.1681 13.2202C33.7192 15.4868 34.8355 16.5894 36.0489 16.5894H37.687C38.7426 16.4547 39.7012 15.5358 40.1137 13.453Z" fill="white"/>
<path d="M77.5584 0.0248279H74.6826C74.391 0.033887 74.1419 0.240117 74.0759 0.527155L73.8575 1.53181L70.2174 18.4271C70.1086 18.703 70.1425 19.0154 70.3078 19.2609C70.4732 19.5064 70.7484 19.6531 71.0425 19.6523H73.8454L77.2186 3.46761L77.8496 0.502651C77.8849 0.381423 77.8602 0.250448 77.7832 0.150838C77.7062 0.0512271 77.5863 -0.00480698 77.4613 0.000324146" fill="white"/>
<path d="M24.9342 16.5283C24.428 16.6259 23.9079 16.4507 23.5612 16.0656C23.2145 15.6805 23.0911 15.1411 23.2355 14.6416L25.8078 2.20593L26.1476 0.52743C26.1829 0.406203 26.1582 0.275228 26.0812 0.175618C26.0042 0.0760072 25.8843 0.0199733 25.7593 0.0251044H22.9564C22.6693 0.039556 22.4265 0.244634 22.3618 0.52743L21.9735 2.2917L19.3769 14.6538C18.9886 16.4426 19.0978 17.7168 19.7773 18.5131C20.5954 19.376 21.7522 19.8253 22.9321 19.7383H29.4116C29.6422 19.7383 30.0062 19.7383 29.897 19.2483C29.3139 18.4197 28.8407 17.5176 28.4894 16.5651H24.9342V16.5283Z" fill="white"/>
<path d="M8.88202 4.99391C8.88202 1.31835 18.5891 0.0196533 18.5891 0.0196533C18.5891 0.0196533 16.0896 0.0196533 11.3088 0.12992C4.73222 0.289194 0 2.12697 0 6.41512C0 10.7033 5.87281 13.656 8.70001 16.7557C9.97952 17.9373 10.9222 19.4433 11.4301 21.1173C12.2722 20.2718 12.7403 19.1187 12.7285 17.9196C12.6193 15.8858 11.1511 14.0603 7.58369 10.9483C4.51381 8.2774 3.94352 7.27275 3.87072 5.9128C3.5795 1.19583 12.3644 0.718009 12.3644 0.718009C12.3644 0.718009 4.9749 1.58789 5.20544 5.3002C5.32678 7.27275 6.91632 8.68172 9.92553 10.9973C14.4029 14.4278 14.1724 16.9517 14.1724 16.9517C15.0094 15.7162 15.3359 14.1997 15.0824 12.7248C14.3665 9.45358 8.90629 7.53004 8.90629 4.95715" fill="#D3D800"/>
</svg>
